<svg xmlns="http://www.w3.org/2000/svg" width="111" height="24" viewBox="0 0 1322.34 279.01"><path d="M166,93.92C225.06,74,229.56,0,171.35,0c-16,0-35.14,11.25-48.36,34.3L44.26,170.41A113.66,113.66,0,0,1,33,187c-20.25-27.84-14.33-69.46,14.06-87.73L35.25,84.37C-26,123.45-8,236.22,94.3,236.22,181.76,236.21,222.24,131.32,166,93.92ZM93.74,213.71c-17.43,0-31.22-3.94-42.17-10.13a151.52,151.52,0,0,0,14.61-20.81l49.2-85.2,7.87.85C191.87,112.77,164.61,213.71,93.74,213.71Zm31.5-133.29,23.61-40.5c21.37-36.84,48.65-15.18,34,12.37C171.63,73.4,155,79.85,125.24,80.42Z" fill="#fff"/><path d="M1311.33,155.78l-2,2.25c-16.32,19.12-35.73,34.88-53.44,41.06,4.78-7.6,8.44-15.75,12.1-21.94l32.34-55.39c27.28-46.4-16.87-61.86-46.68-35.14l5.91-10.13h-29.25l-45.73,79.35-.1,0-2,2.25c-13.21,14.34-29.53,21.37-44.15,21.65L1166,132.18c17.71-30.65,1.41-59.61-26.16-59.61-22.49,0-39.92,9-56.79,38.25l-14.34,25-11.94,20.44-1.56,1.78c-21.09,24.47-41.61,43.86-54.56,43.86-6.47,0-10.11-4.5-3.38-16l42.19-74c12.65-22.22.57-38.25-15.75-38.25-12.65,0-26.16,7-40.77,22.23l46.68-81.27h-29.24L918.79,156.14l-1.68,1.91A182,182,0,0,1,882,189.83c9.3-27.84,7.34-70.58,25.32-108L885.33,70c-12.09,16.6-38.51,54.84-64.95,85.77h0l-2,2.25c-21.09,24.47-41.62,43.86-54.55,43.86-6.47,0-10.13-4.5-3.38-16l29.25-51.18c10.12-17.71,5.34-28.12-4.22-39.65L769.21,75.38C765,70,765,64.13,770.88,58.51L755.71,41.92c-16.6,14.9-18,31.5-7.59,45l2.53,3.37c-12.93,18.27-30.36,43-49.48,65.52l-2,2.25c-21.09,24.47-48.09,43.86-68.62,43.86-18,0-28.68-11.24-15.19-34.86L618.2,162c18.84,7.87,54.28,4.21,76.21-33.74l4.21-7.32c15.75-27,.56-47.24-23.35-47.24-23.61,0-42.45,12.37-54.83,33.75l-28.33,48.62-1.76,2c-13.21,14.62-29.8,21.37-44.15,21.65l27.57-47.52c7.31-12.94,11-24.18,11-33.46,0-14.9-10.11-26.15-26.44-26.15-7,0-13.21,2.53-19.12,6.47l37.13-64.4H546.5l-82,141.65L463,158.06c-21.09,24.47-41.61,43.87-54.56,43.87-6.46,0-10.12-4.5-3.37-16l29.24-51.18c10.12-17.71,5.34-28.12-4.21-39.65L413.77,75.39c-4.22-5.35-4.22-11.25,1.69-16.87L400.28,41.93c-16.61,14.9-18,31.5-7.6,45l2.54,3.37c-12.94,18.27-30.37,43-49.48,65.52l-2,2.25c-21.09,24.47-41.62,43.87-54.55,43.87-6.48,0-10.14-4.5-3.39-16l47.25-82.67H316.47C317.61,90.86,305,73.7,285.83,73.7c-15.75,0-37.67,12.37-50.05,33.75l-41,70.85c-12.38,21.66-3.65,41.62,20,41.62,11.81,0,26.43-7.59,40.49-19.12,1.4,11.25,10.41,19.12,25.32,19.12,24.17,0,52-25.87,76.2-54h0c14.06-16.31,25-30.93,48.37-62.7L409,108c3.65,4.78,5.06,10.68,1.69,16.59l-30.93,53.71c-12.36,21.66-3.64,41.62,20,41.62,17,0,35.71-12.73,53.73-30,0,.07,0,.14,0,.2,0,20,14.91,31.21,33.75,31.21,16.29,0,35.14-8.44,49.77-27.27a49.51,49.51,0,0,0,6.46.28c10.86,0,25.63-4.14,38.83-11.54-1.53,21.11,13.78,37.13,39.63,37.13,33.18,0,66.07-25.87,90.26-54,14.07-16.31,25-30.93,48.37-62.7l3.93,4.78c3.65,4.78,5.06,10.68,1.68,16.59l-30.93,53.71c-12.38,21.66-3.65,41.62,20,41.62,24.19,0,52-25.87,76.21-54h0c16.58-19.12,31.22-39.65,41.61-53.42-11.52,30.38-5.34,84.93-33.17,84.93-9.83,0-13.79-10.68-13.79-10.68l-18.28,9.57S813.07,220,839.79,220a79.18,79.18,0,0,0,8.14-.56c.3,0,.57-.28.86-.28,15.39-2,30.69-9.34,44.92-19.43l-10.06,17.46h29.53l44.42-77.32c45-56.52,65-49.21,52.3-27.56l-38,66.08C959.57,200,968.29,220,991.91,220c17,0,35.78-12.79,53.84-30.14-.06,37.29,51.73,44.56,83.39,4.54h6.48c8.82,0,20.25-2.75,31.32-7.76L1113.68,279h29.53l87.46-152.12c32.61-44.43,53.15-28.12,45.56-14.9l-44.14,76.49c-4.79,8.44-15.76,11-21.1,0l-16.59,7.87s5.34,23.62,32,23.62h1.69c42.46-.85,70.3-26.15,94.2-54C1320.62,161.41,1315.56,156.9,1311.33,155.78ZM645.46,114.73c16.87-29,46.67-24.18,29.24,6.18l-4.21,7.32c-14.06,23.9-32.91,23.34-43.86,19.4ZM270.63,160.85c-17.71,27.83-35.16,41.06-47.25,41.06-6.47,0-10.11-4.49-3.37-16l40.79-71.14c15.74-27.28,46.95-20.24,32.61,6.18ZM490.8,200.78c-6.48,0-11.81-3.94-11.81-11.25,0-4.22,1.69-9,5.07-15.18l10.4-18C496.72,169,502.33,180,513,186.71,507.11,196.27,498.12,200.78,490.8,200.78Zm30.64-28.41c-7.58-5.62-12.38-14.62-12.38-26.44,0-20.81,20.26-54.83,36.83-54.83,6.47,0,11,4.78,11,12.66,0,4.78-1.69,10.68-5.63,17.43Zm600.65-14.62h-1.4a17.3,17.3,0,0,0-17.17,17.43,19.24,19.24,0,0,0,2.82,9.85l-.28.56c-13.77,23.61-47.24,19.12-29.8-11.25l22.22-38.53,14.05-23.9c20.52-34.87,48.65-21.09,30.93,9.28Z" fill="#fff"/></svg>